# xmcd
#
# Track frame offsets:
#	150
#	16825
#	34922
#	50202
#	68210
#	84757
#	98520
#	118452
#	133160
#	149427
#	166777
#	180547
#	197722
#
# Disc length: 2845 seconds
#
# Revision: 1
# Processed by: cddbd v1.5.2PL0 Copyright (c) Steve Scherf et al.
# Submitted via: audiograbber 1.83.01
#
DISCID=b30b1b0d
DTITLE=SILVIO MAX - CIGANA FACEIRA
DYEAR=1900
DGENRE=
TTITLE0=PRAIA DE MARABÁ
TTITLE1=NÃO VOU CHORAR
TTITLE2=DJ APAIXONADO
TTITLE3=CIGANA FACEIRA
TTITLE4=TE AMO DEMAIS
TTITLE5=VOLTE MEU BEM
TTITLE6=TAXISTA
TTITLE7=TUDO BEM
TTITLE8=LINADA SEREIA
TTITLE9=POR UM BEIJO
TTITLE10=VÔA VÔA
TTITLE11=MAS NÃO SABE
TTITLE12=NÃO FAÇA MAIS AMOR
EXTD=
EXTT0=
EXTT1=
EXTT2=
EXTT3=
EXTT4=
EXTT5=
EXTT6=
EXTT7=
EXTT8=
EXTT9=
EXTT10=
EXTT11=
EXTT12=
PLAYORDER=
